<mxfile host="drawio-plugin" modified="2023-07-06T07:46:02.392Z" agent="5.0 (Windows NT 6.2; Win64; x64) AppleWebKit/537.36 (KHTML, like Gecko) Chrome/104.0.5112.102 Safari/537.36" etag="25bpSKTfvnUkGeLG24US" version="20.5.3" type="embed"><diagram id="B3uDLRt_V9X-DplkwoNq" name="Page-1"><mxGraphModel dx="1356" dy="613" grid="1" gridSize="17" guides="1" tooltips="1" connect="1" arrows="1" fold="1" page="1" pageScale="1" pageWidth="850" pageHeight="1400" math="0" shadow="0"><root><mxCell id="0"/><mxCell id="1" parent="0"/><mxCell id="132" value="" style="rounded=0;whiteSpace=wrap;html=1;fillColor=#ADADAD;fontColor=#333333;strokeColor=#666666;" parent="1" vertex="1"><mxGeometry x="272" y="119" width="544" height="408" as="geometry"/></mxCell><mxCell id="37" value="adaptor" style="swimlane;startSize=20;horizontal=1;containerType=tree;newEdgeStyle={&quot;edgeStyle&quot;:&quot;elbowEdgeStyle&quot;,&quot;startArrow&quot;:&quot;none&quot;,&quot;endArrow&quot;:&quot;none&quot;};fillColor=#a0522d;fontColor=#ffffff;strokeColor=#6D1F00;swimlaneFillColor=default;" parent="1" vertex="1"><mxGeometry x="306" y="255" width="136" height="255" as="geometry"><mxRectangle x="68" y="102" width="102" height="34" as="alternateBounds"/></mxGeometry></mxCell><mxCell id="91" value="in" style="swimlane;startSize=20;horizontal=1;containerType=tree;newEdgeStyle={&quot;edgeStyle&quot;:&quot;elbowEdgeStyle&quot;,&quot;startArrow&quot;:&quot;none&quot;,&quot;endArrow&quot;:&quot;none&quot;};fillColor=#1ba1e2;strokeColor=#006EAF;fontColor=#ffffff;" parent="37" vertex="1"><mxGeometry x="17" y="153" width="102" height="85" as="geometry"><mxRectangle x="68" y="102" width="102" height="34" as="alternateBounds"/></mxGeometry></mxCell><UserObject label="web" treeRoot="1" id="95"><mxCell style="whiteSpace=wrap;html=1;align=center;treeFolding=1;treeMoving=1;newEdgeStyle={&quot;edgeStyle&quot;:&quot;elbowEdgeStyle&quot;,&quot;startArrow&quot;:&quot;none&quot;,&quot;endArrow&quot;:&quot;none&quot;};fillColor=#0050ef;fontColor=#ffffff;strokeColor=#001DBC;" parent="91" vertex="1"><mxGeometry x="12.500000000000007" y="33.99999999999999" width="77" height="34" as="geometry"/></mxCell></UserObject><mxCell id="101" value="out" style="swimlane;startSize=20;horizontal=1;containerType=tree;newEdgeStyle={&quot;edgeStyle&quot;:&quot;elbowEdgeStyle&quot;,&quot;startArrow&quot;:&quot;none&quot;,&quot;endArrow&quot;:&quot;none&quot;};fillColor=#d80073;fontColor=#ffffff;strokeColor=#A50040;gradientColor=none;swimlaneFillColor=default;" parent="37" vertex="1"><mxGeometry x="17" y="34" width="102" height="85" as="geometry"><mxRectangle x="68" y="102" width="102" height="34" as="alternateBounds"/></mxGeometry></mxCell><UserObject label="persistence" treeRoot="1" id="102"><mxCell style="whiteSpace=wrap;html=1;align=center;treeFolding=1;treeMoving=1;newEdgeStyle={&quot;edgeStyle&quot;:&quot;elbowEdgeStyle&quot;,&quot;startArrow&quot;:&quot;none&quot;,&quot;endArrow&quot;:&quot;none&quot;};fillColor=#6a00ff;fontColor=#ffffff;strokeColor=#3700CC;" parent="101" vertex="1"><mxGeometry x="12.500000000000007" y="33.99999999999999" width="77" height="34" as="geometry"/></mxCell></UserObject><mxCell id="63" value="application" style="swimlane;startSize=20;horizontal=1;containerType=tree;newEdgeStyle={&quot;edgeStyle&quot;:&quot;elbowEdgeStyle&quot;,&quot;startArrow&quot;:&quot;none&quot;,&quot;endArrow&quot;:&quot;none&quot;};fillColor=#fa6800;fontColor=#000000;strokeColor=#C73500;gradientColor=none;swimlaneFillColor=default;" parent="1" vertex="1"><mxGeometry x="527" y="280.5" width="272" height="204" as="geometry"><mxRectangle x="68" y="102" width="102" height="34" as="alternateBounds"/></mxGeometry></mxCell><UserObject label="service" treeRoot="1" id="75"><mxCell style="whiteSpace=wrap;html=1;align=center;treeFolding=1;treeMoving=1;newEdgeStyle={&quot;edgeStyle&quot;:&quot;elbowEdgeStyle&quot;,&quot;startArrow&quot;:&quot;none&quot;,&quot;endArrow&quot;:&quot;none&quot;};fillColor=#e3c800;fontColor=#000000;strokeColor=#B09500;" parent="63" vertex="1"><mxGeometry x="187" y="34" width="68" height="153" as="geometry"/></mxCell></UserObject><mxCell id="106" value="port" style="swimlane;startSize=20;horizontal=1;containerType=tree;newEdgeStyle={&quot;edgeStyle&quot;:&quot;elbowEdgeStyle&quot;,&quot;startArrow&quot;:&quot;none&quot;,&quot;endArrow&quot;:&quot;none&quot;};fillColor=#f0a30a;fontColor=#000000;strokeColor=#BD7000;gradientColor=none;swimlaneFillColor=default;" parent="63" vertex="1"><mxGeometry x="17" y="34" width="102" height="153" as="geometry"><mxRectangle x="68" y="102" width="102" height="34" as="alternateBounds"/></mxGeometry></mxCell><UserObject label="out" treeRoot="1" id="107"><mxCell style="whiteSpace=wrap;html=1;align=center;treeFolding=1;treeMoving=1;newEdgeStyle={&quot;edgeStyle&quot;:&quot;elbowEdgeStyle&quot;,&quot;startArrow&quot;:&quot;none&quot;,&quot;endArrow&quot;:&quot;none&quot;};fillColor=#6a00ff;strokeColor=#3700CC;dashed=1;fontColor=#ffffff;opacity=40;" parent="106" vertex="1"><mxGeometry x="12.500000000000007" y="33.99999999999999" width="77" height="34" as="geometry"/></mxCell></UserObject><UserObject label="in" treeRoot="1" id="108"><mxCell style="whiteSpace=wrap;html=1;align=center;treeFolding=1;treeMoving=1;newEdgeStyle={&quot;edgeStyle&quot;:&quot;elbowEdgeStyle&quot;,&quot;startArrow&quot;:&quot;none&quot;,&quot;endArrow&quot;:&quot;none&quot;};fillColor=#0050ef;strokeColor=#001DBC;dashed=1;strokeWidth=1;fontColor=#ffffff;opacity=30;" parent="106" vertex="1"><mxGeometry x="12.5" y="102" width="77" height="34" as="geometry"/></mxCell></UserObject><mxCell id="116" style="edgeStyle=orthogonalEdgeStyle;rounded=0;orthogonalLoop=1;jettySize=auto;html=1;exitX=1;exitY=0.5;exitDx=0;exitDy=0;entryX=0;entryY=0.75;entryDx=0;entryDy=0;endArrow=classic;endFill=1;fillColor=#1ba1e2;strokeColor=#0066CC;strokeWidth=2;" parent="63" source="108" target="75" edge="1"><mxGeometry relative="1" as="geometry"/></mxCell><mxCell id="118" style="edgeStyle=orthogonalEdgeStyle;rounded=0;orthogonalLoop=1;jettySize=auto;html=1;exitX=0;exitY=0.25;exitDx=0;exitDy=0;entryX=1;entryY=0.5;entryDx=0;entryDy=0;endArrow=open;endFill=0;fillColor=#d80073;strokeColor=#FF3399;dashed=1;dashPattern=1 1;strokeWidth=2;" parent="63" source="75" target="107" edge="1"><mxGeometry relative="1" as="geometry"/></mxCell><mxCell id="115" style="edgeStyle=orthogonalEdgeStyle;rounded=0;orthogonalLoop=1;jettySize=auto;html=1;exitX=1;exitY=0.5;exitDx=0;exitDy=0;entryX=0;entryY=0.5;entryDx=0;entryDy=0;endArrow=open;endFill=0;fillColor=#1ba1e2;strokeColor=#0066CC;dashed=1;dashPattern=1 1;strokeWidth=2;" parent="1" source="95" target="108" edge="1"><mxGeometry relative="1" as="geometry"/></mxCell><mxCell id="117" style="edgeStyle=orthogonalEdgeStyle;rounded=0;orthogonalLoop=1;jettySize=auto;html=1;exitX=0;exitY=0.5;exitDx=0;exitDy=0;endArrow=block;endFill=0;fillColor=#e6d0de;strokeColor=#FF3399;gradientColor=#d5739d;strokeWidth=2;" parent="1" source="107" target="102" edge="1"><mxGeometry relative="1" as="geometry"/></mxCell><UserObject label="domain entity" treeRoot="1" id="121"><mxCell style="whiteSpace=wrap;html=1;align=center;treeFolding=1;treeMoving=1;newEdgeStyle={&quot;edgeStyle&quot;:&quot;elbowEdgeStyle&quot;,&quot;startArrow&quot;:&quot;none&quot;,&quot;endArrow&quot;:&quot;none&quot;};fillColor=#008a00;fontColor=#ffffff;strokeColor=#005700;" parent="1" vertex="1"><mxGeometry x="391" y="136" width="357" height="34" as="geometry"/></mxCell></UserObject><mxCell id="122" value="" style="endArrow=oval;html=1;strokeWidth=2;rounded=0;entryX=0.5;entryY=1;entryDx=0;entryDy=0;exitX=0.5;exitY=0;exitDx=0;exitDy=0;fillColor=#60a917;strokeColor=#FF0000;startArrow=oval;startFill=0;endFill=1;dashed=1;" parent="1" source="75" target="121" edge="1"><mxGeometry width="50" height="50" relative="1" as="geometry"><mxPoint x="663" y="305" as="sourcePoint"/><mxPoint x="713" y="255" as="targetPoint"/></mxGeometry></mxCell><mxCell id="123" value="" style="endArrow=oval;html=1;strokeWidth=2;rounded=0;entryX=0.5;entryY=1;entryDx=0;entryDy=0;exitX=0.75;exitY=0;exitDx=0;exitDy=0;fillColor=#d5e8d4;strokeColor=#FF0000;gradientColor=#97d077;startArrow=oval;startFill=0;endFill=1;dashed=1;" parent="1" source="102" target="121" edge="1"><mxGeometry width="50" height="50" relative="1" as="geometry"><mxPoint x="731" y="369.75" as="sourcePoint"/><mxPoint x="586.5" y="187" as="targetPoint"/></mxGeometry></mxCell><mxCell id="124" value="Actor" style="shape=umlActor;verticalLabelPosition=bottom;verticalAlign=top;html=1;outlineConnect=0;fillColor=#fad7ac;strokeColor=#b46504;" parent="1" vertex="1"><mxGeometry x="34" y="281" width="85" height="153" as="geometry"/></mxCell><mxCell id="127" value="" style="endArrow=classic;startArrow=block;html=1;rounded=0;exitX=1;exitY=0.3333333333333333;exitDx=0;exitDy=0;exitPerimeter=0;entryX=0;entryY=0.5;entryDx=0;entryDy=0;startFill=0;fillColor=#f8cecc;gradientColor=#ea6b66;strokeColor=#b85450;strokeWidth=2;" parent="1" source="124" target="37" edge="1"><mxGeometry width="50" height="50" relative="1" as="geometry"><mxPoint x="204" y="356" as="sourcePoint"/><mxPoint x="254" y="306" as="targetPoint"/><Array as="points"><mxPoint x="119" y="383"/><mxPoint x="187" y="383"/></Array></mxGeometry></mxCell><mxCell id="128" value="&lt;h1&gt;HTTP&amp;nbsp;&lt;/h1&gt;&lt;p&gt;200 OK&lt;/p&gt;&lt;p&gt;500 Internal Server Error&amp;nbsp;&lt;/p&gt;" style="text;html=1;strokeColor=none;fillColor=none;spacing=5;spacingTop=-20;whiteSpace=wrap;overflow=hidden;rounded=0;" parent="1" vertex="1"><mxGeometry x="136" y="272" width="153" height="103" as="geometry"/></mxCell><mxCell id="130" value="&lt;h1&gt;Package structure&lt;/h1&gt;&lt;p&gt;&lt;b&gt;&lt;font color=&quot;#ff3399&quot;&gt;&amp;lt; root path &amp;gt;&lt;/font&gt;&lt;/b&gt;&lt;br&gt;&lt;font color=&quot;#ff66ff&quot;&gt;&lt;span style=&quot;background-color: initial;&quot;&gt;&lt;b&gt;└ adapter&lt;br&gt;&lt;/b&gt;&lt;/span&gt;&lt;span style=&quot;background-color: initial;&quot;&gt;&lt;span style=&quot;white-space: pre;&quot;&gt;&#9;&lt;/span&gt;&lt;b&gt;└ in&lt;/b&gt;&lt;/span&gt;&lt;span style=&quot;background-color: initial;&quot;&gt;&lt;b&gt;&lt;span style=&quot;white-space: pre;&quot;&gt;&#9;&lt;/span&gt;&lt;br&gt;&lt;/b&gt;&lt;/span&gt;&lt;/font&gt;&lt;span style=&quot;background-color: initial;&quot;&gt;&lt;b&gt;&lt;font color=&quot;#ff66ff&quot;&gt;&lt;span style=&quot;white-space: pre;&quot;&gt;&#9;&lt;/span&gt;&lt;span style=&quot;white-space: pre;&quot;&gt;&#9;&lt;/span&gt;└ web&lt;/font&gt;&lt;/b&gt;&lt;br&gt;&lt;/span&gt;&lt;span style=&quot;background-color: initial; white-space: pre;&quot;&gt;&#9;&lt;/span&gt;&lt;span style=&quot;background-color: initial; white-space: pre;&quot;&gt;&#9;&lt;/span&gt;&lt;span style=&quot;background-color: initial; white-space: pre;&quot;&gt;&#9;&lt;/span&gt;&lt;span style=&quot;background-color: initial;&quot;&gt;: application.port.in 를 통해서 application.service로 연결.&lt;br&gt;&lt;/span&gt;&lt;font color=&quot;#ff66ff&quot;&gt;&lt;span style=&quot;background-color: initial; white-space: pre;&quot;&gt;&#9;&lt;/span&gt;&lt;b&gt;&lt;span style=&quot;background-color: initial;&quot;&gt;└ out&lt;br&gt;&lt;/span&gt;&lt;span style=&quot;background-color: initial; white-space: pre;&quot;&gt;&#9;&lt;/span&gt;&lt;span style=&quot;background-color: initial; white-space: pre;&quot;&gt;&#9;&lt;/span&gt;&lt;/b&gt;&lt;/font&gt;&lt;span style=&quot;background-color: initial;&quot;&gt;&lt;b&gt;&lt;font color=&quot;#ff66ff&quot;&gt;└ persistence&lt;/font&gt;&lt;/b&gt;&lt;br&gt;&lt;/span&gt;&lt;span style=&quot;background-color: initial; white-space: pre;&quot;&gt;&#9;&lt;/span&gt;&lt;span style=&quot;background-color: initial; white-space: pre;&quot;&gt;&#9;&lt;/span&gt;&lt;span style=&quot;background-color: initial; white-space: pre;&quot;&gt;&#9;&lt;/span&gt;&lt;span style=&quot;background-color: initial;&quot;&gt;: application.port.out 을 통해 연결 된다.&lt;br&gt;&lt;span style=&quot;white-space: pre;&quot;&gt;&#9;&lt;/span&gt;&lt;span style=&quot;white-space: pre;&quot;&gt;&#9;&lt;/span&gt;&lt;span style=&quot;white-space: pre;&quot;&gt;&#9;&lt;/span&gt;: port.out interface 구현 및 domain entity의 repository 를 수행 후 결과를 리턴 한다.&lt;/span&gt;&lt;br&gt;&lt;/p&gt;&lt;p&gt;&lt;b&gt;&lt;font color=&quot;#ff66ff&quot;&gt;└ application&lt;br&gt;&lt;span style=&quot;background-color: initial;&quot;&gt;&lt;span style=&quot;white-space: pre;&quot;&gt;&#9;&lt;/span&gt;└ port&lt;br&gt;&lt;/span&gt;&lt;/font&gt;&lt;/b&gt;&lt;span style=&quot;background-color: initial;&quot;&gt;&lt;b&gt;&lt;font color=&quot;#ff66ff&quot;&gt;&lt;span style=&quot;white-space: pre;&quot;&gt;&#9;&lt;/span&gt;&lt;span style=&quot;white-space: pre;&quot;&gt;&#9;&lt;/span&gt;└ in&lt;/font&gt;&lt;/b&gt;&lt;br&gt;&lt;/span&gt;&lt;span style=&quot;background-color: initial;&quot;&gt;&lt;span style=&quot;white-space: pre;&quot;&gt;&#9;&lt;/span&gt;&lt;span style=&quot;white-space: pre;&quot;&gt;&#9;&lt;/span&gt;&lt;span style=&quot;white-space: pre;&quot;&gt;&#9;&lt;/span&gt;: &lt;font color=&quot;#ff3333&quot;&gt;application.service 로 연결하기 위한 interface&lt;/font&gt;&lt;br&gt;&lt;/span&gt;&lt;span style=&quot;background-color: initial;&quot;&gt;&lt;span style=&quot;white-space: pre;&quot;&gt;&#9;&lt;/span&gt;&lt;span style=&quot;white-space: pre;&quot;&gt;&#9;&lt;/span&gt;&lt;span style=&quot;white-space: pre;&quot;&gt;&#9;&lt;/span&gt;: adapter.in.web controller에 인입된 클라이언트의 요청 데이터를 DTO 에 담아서 연결 한다.&lt;br&gt;&lt;/span&gt;&lt;span style=&quot;background-color: initial;&quot;&gt;&lt;font color=&quot;#ff66ff&quot;&gt;&lt;span style=&quot;white-space: pre;&quot;&gt;&#9;&lt;/span&gt;&lt;span style=&quot;white-space: pre;&quot;&gt;&#9;&lt;/span&gt;&lt;b&gt;└ out&lt;/b&gt;&lt;/font&gt;&lt;br&gt;&lt;/span&gt;&lt;span style=&quot;background-color: initial;&quot;&gt;&lt;span style=&quot;white-space: pre;&quot;&gt;&#9;&lt;/span&gt;&lt;span style=&quot;white-space: pre;&quot;&gt;&#9;&lt;/span&gt;&lt;span style=&quot;white-space: pre;&quot;&gt;&#9;&lt;/span&gt;: &lt;font color=&quot;#ff3333&quot;&gt;adapter.out.persistence 로 연결하기 위한 interface&lt;/font&gt;&lt;br&gt;&lt;/span&gt;&lt;span style=&quot;background-color: initial;&quot;&gt;&lt;font color=&quot;#ff66ff&quot;&gt;&lt;span style=&quot;white-space: pre;&quot;&gt;&#9;&lt;/span&gt;&lt;b&gt;└ service&lt;/b&gt;&lt;/font&gt;&lt;br&gt;&lt;/span&gt;&lt;span style=&quot;background-color: initial;&quot;&gt;&lt;span style=&quot;white-space: pre;&quot;&gt;&#9;&lt;/span&gt;&lt;span style=&quot;white-space: pre;&quot;&gt;&#9;&lt;/span&gt;: application.port.out 을 통해 adapter.out.persistence를 연결하여 도메인 엔트리 작업을 할당한다.&lt;br&gt;&lt;span style=&quot;white-space: pre;&quot;&gt;&#9;&lt;/span&gt;&lt;span style=&quot;white-space: pre;&quot;&gt;&#9;&lt;/span&gt;: port.in interface 구현 즉, 비즈니스 로직을 담당 한다.&lt;br&gt;&lt;/span&gt;&lt;span style=&quot;background-color: initial;&quot;&gt;&lt;b&gt;&lt;font color=&quot;#ff66ff&quot;&gt;└ domain&lt;/font&gt;&lt;/b&gt;&lt;br&gt;&lt;/span&gt;&lt;span style=&quot;background-color: initial;&quot;&gt;&lt;span style=&quot;white-space: pre;&quot;&gt;&#9;&lt;/span&gt;: DB 작업을 수행하는 Domain Entity 객체 이다.&lt;/span&gt;&lt;/p&gt;" style="text;html=1;strokeColor=none;fillColor=none;spacing=5;spacingTop=-20;whiteSpace=wrap;overflow=hidden;rounded=0;" parent="1" vertex="1"><mxGeometry y="544" width="782" height="389" as="geometry"/></mxCell><mxCell id="34" value="Untitled Layer" parent="0"/></root></mxGraphModel></diagram></mxfile>